HIERARCHY
ROOT Hips
{
 OFFSET 0.000000 0.000000 0.000000
 CHANNELS 6 Xposition Yposition Zposition Yrotation Xrotation Zrotation
 JOINT Chest
 {
  OFFSET 0.000000 9.857222 0.000240
  CHANNELS 3 Yrotation Xrotation Zrotation
  JOINT Chest2
  {
   OFFSET 0.000000 10.876940 -0.000436
   CHANNELS 3 Yrotation Xrotation Zrotation
   JOINT Chest3
   {
    OFFSET 0.000000 9.827798 0.000000
    CHANNELS 3 Yrotation Xrotation Zrotation
    JOINT Chest4
    {
     OFFSET 0.000000 9.827798 0.000000
     CHANNELS 3 Yrotation Xrotation Zrotation
     JOINT Neck
     {
      OFFSET 0.000000 13.831992 0.000000
      CHANNELS 3 Yrotation Xrotation Zrotation
      JOINT Head
      {
       OFFSET 0.000000 9.147643 -0.001036
       CHANNELS 3 Yrotation Xrotation Zrotation
       End Site
       {
        OFFSET 0.000000 17.515799 -0.000541
       }
      }
     }
     JOINT RightCollar
     {
      OFFSET -3.001579 7.717577 0.000000
      CHANNELS 3 Yrotation Xrotation Zrotation
      JOINT RightShoulder
      {
       OFFSET -14.002642 0.000000 0.000000
       CHANNELS 3 Yrotation Xrotation Zrotation
       JOINT RightElbow
       {
        OFFSET -30.053852 0.000000 0.000000
        CHANNELS 3 Yrotation Xrotation Zrotation
        JOINT RightWrist
        {
         OFFSET -24.564923 0.000000 -0.000000
         CHANNELS 3 Yrotation Xrotation Zrotation
         End Site
         {
          OFFSET -18.334355 0.000000 0.000000
         }
        }
       }
      }
     }
     JOINT LeftCollar
     {
      OFFSET 3.001579 7.717577 0.000000
      CHANNELS 3 Yrotation Xrotation Zrotation
      JOINT LeftShoulder
      {
       OFFSET 14.002642 0.000000 0.000000
       CHANNELS 3 Yrotation Xrotation Zrotation
       JOINT LeftElbow
       {
        OFFSET 30.053852 0.000000 0.000000
        CHANNELS 3 Yrotation Xrotation Zrotation
        JOINT LeftWrist
        {
         OFFSET 24.564923 0.000000 -0.000000
         CHANNELS 3 Yrotation Xrotation Zrotation
         End Site
         {
          OFFSET 18.334355 0.000000 0.000000
         }
        }
       }
      }
     }
    }
   }
  }
 }
 JOINT RightHip
 {
  OFFSET -8.003235 -0.001175 -0.000120
  CHANNELS 3 Yrotation Xrotation Zrotation
  JOINT RightKnee
  {
   OFFSET 0.000000 -41.759727 0.000113
   CHANNELS 3 Yrotation Xrotation Zrotation
   JOINT RightAnkle
   {
    OFFSET 0.000000 -40.728748 0.000159
    CHANNELS 3 Yrotation Xrotation Zrotation
    JOINT RightToe
    {
     OFFSET 0.000000 -6.515296 14.732841
     CHANNELS 3 Yrotation Xrotation Zrotation
     End Site
     {
      OFFSET 0.000000 -1.502839 6.412115
     }
    }
   }
  }
 }
 JOINT LeftHip
 {
  OFFSET 8.003235 -0.001175 -0.000120
  CHANNELS 3 Yrotation Xrotation Zrotation
  JOINT LeftKnee
  {
   OFFSET 0.000000 -41.759727 0.000113
   CHANNELS 3 Yrotation Xrotation Zrotation
   JOINT LeftAnkle
   {
    OFFSET 0.000000 -40.728748 0.000159
    CHANNELS 3 Yrotation Xrotation Zrotation
    JOINT LeftToe
    {
     OFFSET 0.000000 -6.515296 14.732841
     CHANNELS 3 Yrotation Xrotation Zrotation
     End Site
     {
      OFFSET 0.000000 -1.502839 6.412115
     }
    }
   }
  }
 }
}
MOTION
Frames: 11
Frame Time: 0.016667
0.000000 88.822259 0.000000 0.000000 -5.826342 0.000000 0.000000 11.116423 0.000000 0.000000 -5.290081 0.000000 0.000000 0.000000 0.000000 0.000000 0.000000 0.000000 0.000000 12.665069 0.000000 0.000000 0.575450 0.000000 0.000000 0.000000 0.000000 0.000000 0.000000 0.000000 2.337306 0.000000 0.000000 -2.337306 0.000000 0.000000 0.000000 0.000000 0.000000 0.000000 0.000000 0.000000 -2.337306 0.000000 0.000000 2.337306 0.000000 0.000000 0.000000 8.578828 0.000000 0.000000 1.905768 0.000000 0.000000 -4.658254 0.000000 0.000000 0.000000 0.000000 0.000000 8.578828 0.000000 0.000000 1.905768 0.000000 0.000000 -4.658254 0.000000 0.000000 0.000000 0.000000
8.842213 90.317684 19.611256 -27.086224 -14.905000 0.356448 0.845192 5.618787 0.272569 0.335898 2.536909 0.226222 0.335898 2.536909 0.226222 0.250943 1.902807 0.168244 -10.151017 23.396569 0.097708 -18.286331 7.821078 2.767589 5.865344 6.127717 7.506183 47.321181 -7.940400 87.858788 -2.071530 33.697213 3.450105 -3.421546 14.689603 -2.810400 -21.806487 9.835685 -13.984842 -30.330790 11.565874 -59.782008 -24.808840 8.807694 -17.658052 -1.577527 11.865503 7.477369 -2.148882 23.807089 -10.043431 -5.241978 -4.835697 5.239787 -0.471568 -3.808008 3.158773 -0.688481 0.192999 -0.285797 -13.560998 16.696388 -0.032557 16.125558 5.502889 0.078558 0.688952 -5.115512 -3.058769 0.089368 0.050479 0.048216
8.833445 90.311875 19.606165 -27.049434 -14.895834 0.366981 0.880913 5.593846 0.279611 0.339843 2.538649 0.227754 0.339843 2.538649 0.227754 0.253894 1.904115 0.169375 -10.159391 23.362093 0.123390 -18.310098 7.762216 2.820015 6.025672 6.190259 7.589881 47.288965 -8.185485 87.478422 -2.313612 33.917722 3.415710 -2.991345 14.827952 -2.466956 -21.795579 9.722268 -13.983174 -30.222874 11.580479 -59.799297 -24.790403 8.725581 -17.604251 -1.515066 11.895629 7.502465 -2.057570 23.819755 -9.989049 -5.382033 -4.821770 5.213333 -0.445893 -3.857257 3.183774 -0.736195 0.225776 -0.309596 -13.526729 16.663136 -0.011631 16.091022 5.543884 0.070252 0.659075 -5.141816 -3.067935 0.093273 0.059595 0.053782
8.822602 90.308790 19.614679 -26.952195 -14.947792 0.382514 0.835534 5.650620 0.268167 0.339722 2.541482 0.231392 0.339722 2.541482 0.231392 0.253787 1.906241 0.172102 -10.160404 23.303051 0.150255 -18.322473 7.657432 2.876008 6.232817 6.306457 7.692890 47.262369 -8.462398 86.932955 -2.583480 34.187186 3.403526 -2.435517 14.945955 -2.078244 -21.775716 9.612003 -14.013113 -30.089685 11.576254 -59.793731 -24.786031 8.648040 -17.535949 -1.442252 11.898742 7.578592 -2.155102 23.897920 -10.030533 -5.455681 -4.831577 5.219625 -0.427998 -3.856324 3.179187 -0.721511 0.216274 -0.304425 -13.539798 16.692542 -0.016352 16.019242 5.574694 0.055175 0.643829 -5.153892 -3.075199 0.093056 0.057479 0.056181
8.817473 90.305401 19.629860 -26.861764 -15.016968 0.406655 0.781806 5.725425 0.259227 0.335226 2.553919 0.241821 0.335226 2.553919 0.241821 0.250367 1.915573 0.179934 -10.157964 23.218671 0.167787 -18.327854 7.504136 2.917834 6.439626 6.464431 7.786231 47.288145 -8.778104 86.280034 -2.886362 34.359771 3.388207 -1.884667 15.043699 -1.847852 -21.770492 9.511851 -14.082544 -29.970624 11.539280 -59.781556 -24.753822 8.494163 -17.423746 -1.350081 11.921851 7.678515 -2.316995 23.997352 -10.115508 -5.478356 -4.853519 5.236763 -0.353433 -3.881015 3.189401 -0.745605 0.228024 -0.317838 -13.550514 16.738028 -0.044418 15.943998 5.602100 0.043362 0.624108 -5.165053 -3.070984 0.093621 0.053857 0.055654
8.818586 90.304715 19.634961 -26.820236 -15.084458 0.404036 0.754171 5.796982 0.292734 0.322898 2.586605 0.258700 0.322898 2.586605 0.258700 0.241036 1.940091 0.192624 -10.139466 23.104095 0.172287 -18.302917 7.291432 2.936409 6.645099 6.537070 7.850221 47.471260 -9.060686 85.493692 -3.184201 34.371255 3.537738 -1.426925 15.080078 -1.955163 -21.754950 9.371169 -14.154165 -29.861513 11.501143 -59.761869 -24.720725 8.284392 -17.313970 -1.272618 11.952089 7.776433 -2.276084 24.084117 -10.092487 -5.648184 -4.839688 5.250838 -0.342026 -3.886271 3.186059 -0.745749 0.226485 -0.318599 -13.531766 16.788460 -0.046385 15.889130 5.626930 0.045315 0.619559 -5.173754 -3.070749 0.092888 0.053203 0.051335
8.831068 90.305652 19.619712 -26.848761 -15.075039 0.377692 0.787608 5.809428 0.359224 0.307033 2.624930 0.275096 0.307033 2.624930 0.275096 0.229052 1.968836 0.204967 -10.102919 22.981650 0.169157 -18.244050 7.061095 2.937869 6.788473 6.426414 7.878369 47.818183 -9.251299 84.503832 -3.368393 34.373662 3.988012 -1.044196 14.890314 -2.263476 -21.739855 9.164327 -14.171941 -29.686866 11.479626 -59.742878 -24.730931 8.106658 -17.253649 -1.181593 11.985708 7.837906 -2.094523 24.056024 -9.997119 -5.849092 -4.785775 5.258312 -0.317098 -3.894549 3.182353 -0.748874 0.232828 -0.320968 -13.480330 16.763452 -0.014389 15.857000 5.649324 0.067074 0.642211 -5.181113 -3.075106 0.088804 0.061511 0.045017
8.843588 90.312227 19.631427 -26.758786 -15.190006 0.355196 0.700440 5.931907 0.375791 0.289687 2.654022 0.287756 0.289687 2.654022 0.287756 0.215976 1.990654 0.214520 -10.054193 22.887255 0.158854 -18.159592 6.880118 2.919684 6.875785 6.260465 7.875792 48.213497 -9.436847 83.295453 -3.471489 34.310521 4.585522 -0.678381 14.733373 -2.529635 -21.752220 8.990628 -14.154020 -29.418415 11.449970 -59.721089 -24.797243 8.024869 -17.242900 -1.070108 12.023971 7.843359 -2.263728 24.187634 -10.038418 -5.869452 -4.814279 5.275137 -0.332493 -3.842355 3.156674 -0.694686 0.194158 -0.294991 -13.609488 16.857855 -0.065748 15.899171 5.664126 0.082913 0.628826 -5.174261 -3.069739 0.089770 0.055146 0.041519
8.854772 90.320070 19.647003 -26.693027 -15.323143 0.330133 0.622417 6.037896 0.375857 0.271654 2.683627 0.295997 0.271654 2.683627 0.295997 0.202402 2.012853 0.220764 -9.989390 22.828642 0.152300 -18.044850 6.764005 2.899403 6.969830 6.112010 7.877418 48.672102 -9.731224 82.066057 -3.745890 34.171059 4.967560 -0.312769 14.791013 -2.559529 -21.755789 8.861769 -14.098157 -29.166256 11.399293 -59.744462 -24.882109 8.030176 -17.200488 -0.950503 12.047864 7.795390 -2.518648 24.336536 -10.121678 -5.787134 -4.866402 5.300325 -0.353343 -3.794866 3.144553 -0.680620 0.168223 -0.286419 -13.685180 16.983270 -0.099313 15.937595 5.669853 0.083964 0.592932 -5.164453 -3.055057 0.094309 0.046006 0.038668
8.839139 90.331253 19.651830 -26.688272 -15.450854 0.246217 0.573480 6.126669 0.430957 0.262513 2.708246 0.302774 0.262513 2.708246 0.302774 0.195506 2.031315 0.225874 -9.917682 22.796962 0.154620 -17.918272 6.698200 2.889686 7.046648 5.995831 7.886565 49.280059 -10.066315 80.832563 -4.106129 34.116149 5.218514 0.015515 14.819036 -2.444588 -21.767247 8.774585 -14.035507 -29.006353 11.385303 -59.806483 -25.007585 8.017479 -17.105409 -0.843672 12.035199 7.737601 -2.602345 24.480398 -10.020126 -5.760365 -4.914861 5.250633 -0.456593 -3.724981 3.089703 -0.556287 0.128120 -0.228781 -13.683959 17.136709 -0.041303 15.972860 5.671669 0.084155 0.574810 -5.162587 -3.059136 0.092058 0.039582 0.035041
8.829764 90.337495 19.640099 -26.753839 -15.460112 0.212340 0.558041 6.139475 0.448167 0.255555 2.717184 0.308590 0.255555 2.717184 0.308590 0.190257 2.038018 0.230262 -9.841273 22.774008 0.164138 -17.784559 6.649090 2.890483 7.091807 5.960946 7.890133 49.788174 -10.361888 79.308909 -4.177355 34.427651 5.752679 0.301152 14.825536 -2.329658 -21.775015 8.735903 -13.994730 -28.931264 11.402226 -59.835056 -25.185547 7.919491 -17.010555 -0.770627 12.035472 7.702059 -2.604446 24.479130 -9.971330 -5.773944 -4.930634 5.242727 -0.472524 -3.691130 3.073988 -0.551615 0.122031 -0.224607 -13.626440 17.160039 0.021263 16.003364 5.680653 0.069823 0.566940 -5.155180 -3.061820 0.092376 0.030660 0.035488
